# xmcd CD database file
# Generated: Wed May 22 10:02:40 2002 by KSCD
# 
# Track frame offsets:
#       150
#       14166
#       33078
#       46983
#       58779
#       71992
#       82786
#       98968
#       115135
#       137550
#       148897
#
# Disc length: 2216 seconds
#
# Revision: 2
# Processed by: cddbd v1.4PL0 Copyright (c) Steve Scherf et al.
# Submitted via: Kscd 1.3.0
#
DISCID=9b08a60b
DTITLE=Paula Nelson - Coming Home
DYEAR=1900
DGENRE=
TTITLE0=Up and Gone
TTITLE1=Coming Home
TTITLE2=Feel My Heart
TTITLE3=Blind to Leave
TTITLE4=Simple Lives
TTITLE5=Wish I Was There
TTITLE6=Black Cat
TTITLE7=No Uncertain Terms
TTITLE8=Another Goodbye
TTITLE9=Alone
TTITLE10=Through the Grey
EXTD=
EXTT0=
EXTT1=
EXTT2=
EXTT3=
EXTT4=
EXTT5=
EXTT6=
EXTT7=
EXTT8=
EXTT9=
EXTT10=
PLAYORDER=
